<?xml version="1.0" encoding="iso-8859-1"?>
<!-- Generator: Adobe Illustrator 19.0.0, SVG Export Plug-In . SVG Version: 6.00 Build 0)  -->
<svg version="1.1" id="Layer_1" xmlns="http://www.w3.org/2000/svg" xmlns:xlink="http://www.w3.org/1999/xlink" x="0px" y="0px"
	 viewBox="0 0 493.456 493.456" style="enable-background:new 0 0 493.456 493.456;" xml:space="preserve">
<g>
	<g>
		<path d="M246.73,0C110.682,0,0.002,110.684,0.002,246.728s110.68,246.728,246.728,246.728s246.724-110.684,246.724-246.728
			S382.778,0,246.73,0z M176.722,331.064c0,2.344-1.312,4.868-4.188,4.868h-6.752c-2.744,0-5.06-2.184-5.06-4.772V162.632
			c0-2.456,2.8-4.868,5.656-4.868h5.744c2.536,0,4.6,2.28,4.6,5.084V331.064z M332.722,321.108c0,5.776-1.004,8.828-1.848,10.372
			c-1.084,1.972-2.292,2.244-3.34,2.244c-1.436,0-4.02-0.604-8.144-3.468l-100.968-70.64c-4.768-3.312-7.396-7.628-7.396-12.16
			c0-4.84,3.016-9.708,8.3-13.376l100.052-70.612c4.14-2.876,6.72-3.48,8.156-3.48c4.684,0,5.188,8.816,5.188,12.608V321.108z"/>
	</g>
</g>
<g>
</g>
<g>
</g>
<g>
</g>
<g>
</g>
<g>
</g>
<g>
</g>
<g>
</g>
<g>
</g>
<g>
</g>
<g>
</g>
<g>
</g>
<g>
</g>
<g>
</g>
<g>
</g>
<g>
</g>
</svg>
